<?xml version="1.0" encoding="utf-8"?>
<!-- Generator: Adobe Illustrator 24.2.0, SVG Export Plug-In . SVG Version: 6.00 Build 0)  -->
<!DOCTYPE svg PUBLIC "-//W3C//DTD SVG 1.1//EN" "http://www.w3.org/Graphics/SVG/1.1/DTD/svg11.dtd" [
	<!ENTITY ns_extend "http://ns.adobe.com/Extensibility/1.0/">
	<!ENTITY ns_ai "http://ns.adobe.com/AdobeIllustrator/10.0/">
	<!ENTITY ns_graphs "http://ns.adobe.com/Graphs/1.0/">
	<!ENTITY ns_vars "http://ns.adobe.com/Variables/1.0/">
	<!ENTITY ns_imrep "http://ns.adobe.com/ImageReplacement/1.0/">
	<!ENTITY ns_sfw "http://ns.adobe.com/SaveForWeb/1.0/">
	<!ENTITY ns_custom "http://ns.adobe.com/GenericCustomNamespace/1.0/">
	<!ENTITY ns_adobe_xpath "http://ns.adobe.com/XPath/1.0/">
]>
<svg version="1.1" xmlns:x="&ns_extend;" xmlns:i="&ns_ai;" xmlns:graph="&ns_graphs;"
	 xmlns="http://www.w3.org/2000/svg" xmlns:xlink="http://www.w3.org/1999/xlink" x="0px" y="0px" width="750px" height="750px"
	 viewBox="0 0 750 750" enable-background="new 0 0 750 750" xml:space="preserve">
<metadata>
	<sfw  xmlns="&ns_sfw;">
		<slices></slices>
		<sliceSourceBounds  bottomLeftOrigin="true" height="10078.462" width="10245.819" x="-4000" y="-1726"></sliceSourceBounds>
	</sfw>
</metadata>
<g id="FILL-BACKGROUND">
	<rect fill="#FFFFFF" width="750" height="750"/>
</g>
<g id="N-TEXT">
</g>
<g id="AG-DIAGRAM">
	<g id="POLYLINE_911_">
		<g>
			<g>
				
					<line fill="none" stroke="#FF6B6B" stroke-width="3.25" stroke-linecap="round" stroke-linejoin="round" x1="150.369" y1="573.965" x2="152.369" y2="573.965"/>
				
					<line fill="none" stroke="#FF6B6B" stroke-width="3.25" stroke-linecap="round" stroke-linejoin="round" stroke-dasharray="3.9859,6.9753" x1="159.344" y1="573.965" x2="594.301" y2="573.965"/>
				
					<line fill="none" stroke="#FF6B6B" stroke-width="3.25" stroke-linecap="round" stroke-linejoin="round" x1="597.789" y1="573.965" x2="599.789" y2="573.965"/>
			</g>
		</g>
	</g>
</g>
<g id="AG-PEOPLE">
	<g id="POLYLINE_1092_">
		
			<path fill="none" stroke="#FF6B6B" stroke-width="2.75" stroke-linecap="round" stroke-linejoin="round" stroke-miterlimit="10" d="
			M290.731,569.358c4.182,1.925,8.698,3.155,13.244,3.846c2.644,0.402,5.388,0.634,8.06,0.72c0.429,0.013,1.275,0.032,1.702,0.036
			c0,0,0.862,0.005,0.862,0.005h30.532c4.624-0.057,30.495,0.167,34.621-0.2c8.734-0.511,18.03-1.734,26.695-2.996"/>
	</g>
	<g id="POLYLINE_1090_">
		
			<path fill="none" stroke="#FF6B6B" stroke-width="2.75" stroke-linecap="round" stroke-linejoin="round" stroke-miterlimit="10" d="
			M436.325,521.659c7.653-2.086,14.96-5.628,21.19-10.556c2.187-1.695,4.643-4.059,6.671-5.976c3.043-2.8,6.378-5.831,9.668-8.317
			c1.291-0.958,2.625-1.927,4.076-2.63c1.143-0.546,2.371-0.924,3.615-1.155c1.67-0.311,3.392-0.365,5.085-0.26
			c1.507,0.083,3.09,0.371,4.586,0.574c3.412,0.435,6.926,0.776,10.35,0.303c2.318-0.322,4.753-1.24,6.535-2.717
			c1.814-1.441,3.167-3.505,2.99-5.795c-0.085-1.085-0.428-1.963-0.856-2.921c-0.627-1.352-1.433-2.641-2.272-3.87
			c-0.89-1.266-1.82-2.595-2.894-3.712c-1.147-1.208-2.45-2.278-3.828-3.213c-2.852-1.932-6.059-3.344-9.315-4.444
			c-4.433-1.451-9.673-3.226-14.17-4.366c-1.825-0.55-3.637-0.391-5.373,0.201c-1.891,0.636-3.634,1.673-5.257,2.821
			c-5.026,3.784-9.855,8.167-14.258,12.659c-1.823,1.872-3.797,3.66-6.04,5.016c-0.965,0.578-1.994,1.075-3.075,1.395
			c-0.856,0.251-1.752,0.38-2.641,0.439c-1.737,0.11-3.491-0.111-5.172-0.55c-1.406-0.349-2.755-0.949-4.122-1.415
			c-2.981-1.017-6.111-1.645-9.247-1.919c-1.316-0.108-2.536,0.175-3.683,0.582c-1.276,0.461-2.492,1.112-3.639,1.831
			c-3.097,1.963-5.867,4.46-8.478,7.022"/>
	</g>
	<g id="POLYLINE_1045_">
		
			<path fill="none" stroke="#FF6B6B" stroke-width="2.75" stroke-linecap="round" stroke-linejoin="round" stroke-miterlimit="10" d="
			M412.991,485.225c-11.613,0.453-40.711,0.186-52.771,0.159c-5.692-0.074-14.005-0.248-19.662-0.53
			c-6.162-0.327-12.655-0.764-18.735-1.781c-2.611-0.453-5.262-1.005-7.742-1.955c-2.335-0.894-5.128-2.498-5.259-5.245
			c-0.059-1.468,0.414-2.716,0.929-4c0.522-1.303,2.266-4.668,2.904-5.972c1.204-2.461,2.295-5.042,2.934-7.711
			c0.881-3.597,1.147-7.348,1.144-11.044c0.081-8.202-2.438-25.401-3.321-33.739c-1.429-11.789-3.096-24.178-5.842-35.732"/>
	</g>
	<g id="POLYLINE_1023_">
		
			<path fill="none" stroke="#FF6B6B" stroke-width="2.75" stroke-linecap="round" stroke-linejoin="round" stroke-miterlimit="10" d="
			M311.604,365.292c-0.557,2.492-1.357,5.042-2.216,7.449c-1.626,4.278-3.264,9.333-5.322,13.393
			c-0.544,1.033-1.219,2.191-2.037,2.987c-0.087,0.082-0.116,0.108-0.116,0.108c-0.087,0.076-0.116,0.101-0.116,0.101
			c-0.087,0.07-0.116,0.093-0.116,0.093c-0.087,0.065-0.116,0.085-0.116,0.085c-0.087,0.059-0.116,0.078-0.116,0.078
			c-0.087,0.053-0.117,0.069-0.117,0.069c-0.088,0.047-0.117,0.061-0.117,0.061c-0.088,0.04-0.117,0.053-0.117,0.053
			c-0.088,0.034-0.117,0.044-0.117,0.044c-0.088,0.027-0.117,0.035-0.117,0.035c-0.088,0.021-0.117,0.027-0.117,0.027
			c-0.092,0.014-0.123,0.018-0.123,0.018c-0.092,0.007-0.123,0.008-0.123,0.008c-0.092,0-0.123-0.001-0.123-0.001
			c-0.092-0.007-0.123-0.011-0.123-0.011c-0.093-0.014-0.124-0.02-0.124-0.02c-0.093-0.021-0.124-0.029-0.124-0.029
			c-0.093-0.028-0.124-0.038-0.124-0.038c-0.093-0.034-0.125-0.047-0.125-0.047c-0.094-0.041-0.125-0.056-0.125-0.056
			c-0.094-0.047-0.126-0.064-0.126-0.064c-0.095-0.053-0.126-0.072-0.126-0.072c-0.095-0.059-0.127-0.08-0.127-0.08
			c-1.044-0.736-1.702-1.655-2.455-2.625l-3.747-5.192c-3.475-4.68-7.974-8.582-12.95-11.597c-1.312-0.781-2.686-1.51-4.107-2.072
			c-0.938-0.365-2.069-0.729-3.051-0.729c-0.086,0.002-0.128,0.003-0.128,0.003c-0.082,0.005-0.123,0.008-0.123,0.008
			c-0.079,0.008-0.118,0.013-0.118,0.013c-0.076,0.011-0.113,0.018-0.113,0.018c-0.092,0.019-0.11,0.023-0.11,0.023
			c-0.105,0.028-0.122,0.033-0.122,0.033c-0.1,0.034-0.116,0.04-0.116,0.04c-0.095,0.039-0.11,0.046-0.11,0.046
			c-0.104,0.053-0.119,0.061-0.119,0.061c-0.098,0.06-0.111,0.069-0.111,0.069c-0.105,0.078-0.117,0.088-0.117,0.088
			c-0.098,0.087-0.11,0.098-0.11,0.098c-0.08,0.084-0.102,0.109-0.102,0.109c-0.086,0.105-0.106,0.132-0.106,0.132
			c-0.06,0.085-0.08,0.115-0.08,0.115c-0.057,0.091-0.076,0.122-0.076,0.122c-0.054,0.097-0.072,0.13-0.072,0.13
			c-0.215,0.417-0.329,0.772-0.455,1.15c-0.284,0.935-0.612,2.009-0.963,2.904c-0.472,1.207-1.087,2.451-1.689,3.601
			c-1.378,2.607-3.084,5.362-4.669,7.856c-4.19,6.432-10.945,16.497-15.058,23c-5.206,8.149-11.292,16.053-17.592,23.389
			c-13.224,15.659-32.07,35.314-44.151,51.764c-2.38,3.298-5.183,7.89-8.019,10.738c-1.618,1.621-3.569,2.844-5.759,3.495
			c-4.664,1.355-10.307,1.209-15.132,1.655c-4.068,0.348-8.242,0.934-11.934,2.775c-5.407,2.671-9.44,7.514-12.181,12.796
			c-1.712,3.26-2.913,6.822-3.9,10.363c-1.144,4.165-2.378,9.245-4.191,13.154c-1.199,2.65-3.046,5.361-4.433,7.913
			c-0.668,1.282-1.415,2.775-1.322,4.21c0.007,0.073,0.011,0.11,0.011,0.11c0.009,0.072,0.015,0.108,0.015,0.108
			c0.019,0.107,0.026,0.142,0.026,0.142c0.024,0.105,0.033,0.14,0.033,0.14c0.029,0.103,0.04,0.137,0.04,0.137
			c0.035,0.101,0.048,0.134,0.048,0.134c0.041,0.099,0.055,0.132,0.055,0.132c0.047,0.097,0.063,0.129,0.063,0.129
			c0.04,0.073,0.064,0.115,0.064,0.115c0.051,0.082,0.077,0.122,0.077,0.122c0.056,0.08,0.085,0.12,0.085,0.12
			c0.061,0.078,0.092,0.117,0.092,0.117c0.065,0.077,0.099,0.115,0.099,0.115c0.07,0.075,0.107,0.112,0.107,0.112
			c0.075,0.073,0.114,0.11,0.114,0.11c0.08,0.072,0.121,0.107,0.121,0.107c0.084,0.07,0.128,0.105,0.128,0.105
			c1.455,1.092,3.291,1.508,5.029,1.853c3.124,0.559,6.365,0.671,9.534,0.651c3.609-0.043,7.287-0.295,10.866-0.768
			c3.71-0.502,7.437-1.304,10.938-2.648c3.207-1.223,6.244-2.933,8.934-5.068c3.455-2.734,6.392-6.156,9.157-9.569
			c3.463-4.38,8.563-11.187,12.277-15.176c2.132-2.316,4.517-4.538,6.957-6.526c4.532-3.714,9.776-7.03,14.802-10.057
			c9.593-5.702,20.854-12.254,29.601-19.076c4.898-3.762,9.584-7.931,13.797-12.45c7.721-8.251,14.296-17.677,20.243-27.264
			c10.771-17.481,20.113-36.168,27.772-55.217"/>
	</g>
	<g id="POLYLINE_1001_">
		
			<path fill="none" stroke="#FF6B6B" stroke-width="2.75" stroke-linecap="round" stroke-linejoin="round" stroke-miterlimit="10" d="
			M250.283,511.135c9.462-2.587,20.705-5.625,30.241-7.681c5.604-1.191,11.559-2.396,17.253-2.963
			c1.587-0.144,3.237-0.268,4.827-0.248c3.427,0.098,9.557,0.48,12.98,0.71c6.577,0.444,14.073,1.459,20.636,1.645
			c6.678,0.253,13.572-0.401,20.215-1.078c2.74-0.229,8.322-0.662,11.069-0.817c2.339-0.123,6.888-0.297,9.206-0.559
			c2.523-0.275,5.073-0.738,7.514-1.439c2.028-0.583,4.05-1.355,5.929-2.318c4.664-2.543,9.747-4.301,14.944-5.375
			c4.017-0.825,8.161-1.351,12.266-1.087c2.254,0.164,4.547,0.524,6.64,1.409c3.121,1.319,5.72,3.64,7.847,6.24
			c2.375,2.877,4.251,6.215,5.161,9.848c0.8,3.114,0.913,6.387,0.487,9.568c-0.286,2.114-0.844,4.219-1.833,6.118
			c-0.867,1.673-2.094,3.171-3.601,4.307c-1.928,1.46-4.145,2.74-6.254,3.929c-4.103,2.292-8.966,4.605-13.237,6.605
			c-7.694,3.574-16.084,6.787-24.113,9.559c-6.777,2.293-14.112,4.635-21.047,6.337c-7.024,1.751-14.386,3.18-21.557,4.171
			c-7.122,0.914-14.78,1.729-21.836,3.058c-3.187,0.585-6.603,1.318-9.728,2.17c-2.183,0.605-4.5,1.384-6.684,1.996
			c-9.487,2.638-19.485,4.827-29.186,6.506c-6.681,1.095-13.619,1.834-20.385,2.101c-6.888,0.251-14.299,0.063-21.19-0.173
			c-5.342-0.253-11.369-0.531-16.683-1.14c-4.109-0.525-8.22-1.492-12.064-3.049c-6.914-2.814-13.318-7.637-16.875-14.307
			c-2.372-4.415-3.186-9.503-3.155-14.472c0.036-4.85,0.872-9.701,2.109-14.381c0.826-3.209,2.054-6.353,3.754-9.202
			c1.508-2.55,3.402-4.892,5.556-6.926"/>
	</g>
	<g id="POLYLINE_1000_">
		
			<path fill="none" stroke="#FF6B6B" stroke-width="2.75" stroke-linecap="round" stroke-linejoin="round" stroke-miterlimit="10" d="
			M269.839,372.048c-1.99-2.088-4.216-4.575-4.15-7.609c0.016-1.481,0.349-2.761,0.767-4.14c0.613-2.011,2.16-5.803,2.917-7.81
			c2.45-6.272,4.508-15.326,6.268-21.889c1.544-5.604,3.268-11.317,5.926-16.501c1.004-1.941,2.165-3.838,3.537-5.54
			c1.231-1.533,2.655-2.933,4.182-4.17c5.27-4.315,12.809-7.137,18.978-9.951c8.042-3.518,16.878-9.658,24.279-14.45
			c2.497-1.576,5.104-3.171,7.819-4.335c2.597-1.166,6.222-2.087,8.982-2.861"/>
	</g>
	<g id="POLYLINE_996_">
		
			<path fill="none" stroke="#FF6B6B" stroke-width="2.75" stroke-linecap="round" stroke-linejoin="round" stroke-miterlimit="10" d="
			M212.271,502.135c4.833-2.116,9.958-3.607,15.141-4.57c2.498-0.467,5.145-0.823,7.679-1.065
			c6.412-0.655,36.774-3.306,42.511-4.164c4.985-0.69,10.13-1.615,14.99-2.92c4.446-1.204,8.858-2.831,13.081-4.667
			c1.314-0.59,2.654-1.239,3.892-1.978c1.067-0.63,2.151-1.426,2.919-2.366"/>
	</g>
	<g id="POLYLINE_995_">
		
			<path fill="none" stroke="#FF6B6B" stroke-width="2.75" stroke-linecap="round" stroke-linejoin="round" stroke-miterlimit="10" d="
			M457.763,395.423c-0.423-1.22-0.825-2.595-0.913-3.87c-0.1-1.284,0.157-2.572,0.64-3.667c0.533-1.223,1.386-2.278,2.249-3.125
			c1.273-1.245,2.721-2.235,4.227-3.166c2.757-1.686,5.823-3.188,8.756-4.547c3.995-1.822,8.503-3.69,12.619-5.219
			c0.966-0.342,2.082-0.692,3.051-0.618c0.086,0.007,0.129,0.012,0.129,0.012c0.085,0.01,0.128,0.016,0.128,0.016
			c0.085,0.014,0.127,0.021,0.127,0.021c0.084,0.017,0.126,0.026,0.126,0.026c0.084,0.02,0.125,0.031,0.125,0.031
			c0.083,0.023,0.125,0.036,0.125,0.036c0.083,0.027,0.124,0.041,0.124,0.041c0.083,0.03,0.124,0.046,0.124,0.046
			c0.082,0.034,0.124,0.052,0.124,0.052c0.082,0.037,0.124,0.057,0.124,0.057c0.082,0.041,0.124,0.062,0.124,0.062
			c1.115,0.611,1.891,1.577,2.606,2.491c0.921,1.22,1.75,2.597,2.496,3.935c2.583,4.704,4.768,9.964,6.783,14.947
			c2.774,6.826,5.81,15.645,9.648,21.839c1.666,2.742,3.829,5.181,6.158,7.378c2.189,2.078,5.147,4.671,7.176,6.865
			c1.532,1.628,2.986,3.452,4.309,5.255c5.605,7.776,10.957,17.172,16.696,24.845c6.851,9.487,18.199,20.585,25.896,29.467
			c1.82,2.099,3.627,4.582,5.209,6.874c0.86,1.197,1.779,2.429,2.889,3.407c1.824,1.658,4.081,2.291,6.431,2.561
			c4.591,0.529,10.338,0.186,14.903,0.931c1.54,0.248,3.088,0.62,4.517,1.255c1.039,0.462,2.013,1.082,2.882,1.815
			c1.752,1.476,3.091,3.385,4.236,5.353c2.609,4.624,4.689,9.817,7.634,14.312c2.208,3.486,4.713,6.856,7.393,9.994
			c2.31,2.687,4.803,5.306,7.538,7.567c1.268,1.054,3.277,2.508,4.279,3.769c0.539,0.66,0.897,1.348,1.105,2.098
			c0.238,0.854,0.231,1.771,0.148,2.561c-0.177,1.56-0.628,2.968-1.245,4.389c-1.269,2.81-3.293,5.748-6.133,7.054
			c-3.127,1.377-6.488,0.63-9.655-0.098c-5.301-1.366-11.455-2.774-16.594-4.61c-3.995-1.409-7.925-3.203-11.546-5.408
			c-6.197-3.809-11.762-8.665-16.812-13.879c-2.722-2.841-5.365-5.879-7.664-9.073c-1.452-1.967-3.029-4.761-4.285-6.875
			c-0.866-1.432-1.838-2.833-2.958-4.077c-1.645-1.829-3.582-3.45-5.513-4.968c-4.348-3.423-12.923-9.07-17.585-12.277
			c-7.827-5.382-15.828-11.248-22.942-17.534c-7.564-6.63-14.485-14.121-20.279-22.351c-7.661-10.52-14.855-24.549-22.21-35.285
			c-2.764-3.94-6.458-8.968-8.873-13.067C463.108,407.444,460.006,401.56,457.763,395.423z"/>
	</g>
	<g id="POLYLINE_994_">
		
			<path fill="none" stroke="#FF6B6B" stroke-width="2.75" stroke-linecap="round" stroke-linejoin="round" stroke-miterlimit="10" d="
			M504.495,492.926c3.162,0.507,6.95,0.935,10.097,1.436c2.866,0.462,5.879,1.071,8.697,1.77c8.51,2.106,16.801,5.377,24.336,9.873"
			/>
	</g>
	<g id="POLYLINE_947_">
		
			<path fill="none" stroke="#FF6B6B" stroke-width="2.75" stroke-linecap="round" stroke-linejoin="round" stroke-miterlimit="10" d="
			M554.461,510.732c4.655,3.758,8.659,8.476,10.979,14.03c1.253,2.949,1.973,6.113,2.351,9.288
			c0.716,5.849-0.125,11.948-3.022,17.131c-0.856,1.577-1.937,3.075-3.055,4.477c-1.692,2.133-3.573,4.199-5.568,6.053
			c-3.404,3.165-7.303,5.86-11.532,7.799c-2.745,1.25-5.687,2.135-8.631,2.782c-5.177,1.123-10.533,1.557-15.823,1.656
			c-23.098-0.103-66.594,0.548-89.222-0.877c-12.683-0.688-25.71-2.25-38.227-4.432c-5.553-0.979-11.765-2.081-17.204-3.605
			c-3.669-0.961-18.163-7.001-21.681-8.28"/>
	</g>
	<g id="POLYLINE_945_">
		
			<path fill="none" stroke="#FF6B6B" stroke-width="2.75" stroke-linecap="round" stroke-linejoin="round" stroke-miterlimit="10" d="
			M457.763,395.423c-1.02-0.954-2.23-2.033-3.07-3.138c-1.107-1.416-2.026-3.017-2.87-4.602c-1.532-2.923-2.84-6.019-3.855-9.16
			c-0.799-2.514-1.441-5.123-1.668-7.756"/>
	</g>
	<g id="POLYLINE_897_">
		
			<path fill="none" stroke="#FF6B6B" stroke-width="2.75" stroke-linecap="round" stroke-linejoin="round" stroke-miterlimit="10" d="
			M450.249,480.779c0.385-2.586,0.871-5.38,0.54-7.988c-0.26-2.316-1.132-4.544-2.016-6.685c-1.755-4.117-3.896-8.697-4.959-13.027
			c-0.859-3.396-1.208-6.934-1.292-10.431c-0.148-6.409,0.616-13.111,1.423-19.473c1.68-12.346,3.532-26.313,6.465-38.374"/>
	</g>
	<g id="POLYLINE_896_">
		
			<path fill="none" stroke="#FF6B6B" stroke-width="2.75" stroke-linecap="round" stroke-linejoin="round" stroke-miterlimit="10" d="
			M350.791,251.235c-0.953-1.768-1.925-3.652-2.349-5.623c-0.321-1.335-0.18-2.661-0.398-3.978
			c-0.024-0.106-0.031-0.132-0.031-0.132c-0.028-0.1-0.035-0.124-0.035-0.124c-0.032-0.093-0.041-0.116-0.041-0.116
			c-0.047-0.107-0.052-0.117-0.052-0.117c-0.06-0.105-0.066-0.114-0.066-0.114c-0.083-0.107-0.089-0.115-0.089-0.115
			c-0.105-0.093-0.113-0.099-0.113-0.099c-0.098-0.058-0.108-0.063-0.108-0.063c-0.105-0.04-0.116-0.044-0.116-0.044
			c-0.103-0.025-0.115-0.027-0.115-0.027c-0.086-0.013-0.111-0.015-0.111-0.015c-0.104-0.007-0.131-0.008-0.131-0.008
			c-0.083-0.001-0.111,0-0.111,0c-0.238,0.009-0.337,0.024-0.521,0.046c-0.71,0.106-1.657,0.273-2.332,0.161
			c-0.077-0.012-0.115-0.019-0.115-0.019c-0.077-0.015-0.115-0.023-0.115-0.023c-0.076-0.018-0.114-0.028-0.114-0.028
			c-0.076-0.021-0.113-0.032-0.113-0.032c-0.075-0.024-0.113-0.038-0.113-0.038c-0.074-0.028-0.112-0.043-0.112-0.043
			c-0.074-0.032-0.111-0.049-0.111-0.049c-0.101-0.05-0.134-0.068-0.134-0.068c-0.1-0.057-0.133-0.077-0.133-0.077
			c-0.098-0.063-0.131-0.085-0.131-0.085c-0.097-0.069-0.129-0.093-0.129-0.093c-0.096-0.075-0.127-0.101-0.127-0.101
			c-0.095-0.081-0.126-0.109-0.126-0.109c-0.093-0.087-0.124-0.117-0.124-0.117c-1.206-1.248-1.829-2.779-2.471-4.327
			c-1.122-2.808-2.104-6.542-3.259-9.334c-0.536-1.345-1.456-3.071-1.597-4.494c-0.092-0.932,0.153-1.811,0.584-2.548
			c0.056-0.092,0.076-0.123,0.076-0.123c0.059-0.09,0.08-0.119,0.08-0.119c0.062-0.087,0.084-0.115,0.084-0.115
			c0.065-0.084,0.087-0.111,0.087-0.111c0.091-0.107,0.115-0.133,0.115-0.133c0.096-0.101,0.12-0.125,0.12-0.125
			c0.1-0.094,0.126-0.117,0.126-0.117c0.105-0.087,0.131-0.108,0.131-0.108c0.081-0.06,0.109-0.08,0.109-0.08
			c0.084-0.056,0.112-0.073,0.112-0.073c0.086-0.051,0.115-0.066,0.115-0.066c0.089-0.045,0.118-0.059,0.118-0.059
			c0.091-0.04,0.121-0.052,0.121-0.052c0.093-0.034,0.124-0.044,0.124-0.044c0.095-0.028,0.127-0.036,0.127-0.036
			c0.097-0.021,0.13-0.027,0.13-0.027c0.099-0.015,0.133-0.018,0.133-0.018c0.101-0.008,0.118-0.009,0.118-0.009
			c0.103-0.002,0.12-0.001,0.12-0.001c0.105,0.005,0.128,0.007,0.128,0.007c0.094,0.01,0.118,0.013,0.118,0.013
			c0.096,0.015,0.12,0.02,0.12,0.02c0.097,0.021,0.121,0.026,0.121,0.026c0.098,0.026,0.147,0.04,0.147,0.04
			c0.099,0.031,0.149,0.048,0.149,0.048c0.1,0.037,0.151,0.056,0.151,0.056c0.101,0.042,0.152,0.064,0.152,0.064
			c1.804,0.827,3.162,2.413,4.801,3.409c0.074,0.04,0.111,0.059,0.111,0.059c0.107,0.051,0.141,0.067,0.141,0.067
			c0.101,0.04,0.116,0.046,0.116,0.046c0.104,0.032,0.119,0.036,0.119,0.036c0.099,0.02,0.112,0.023,0.112,0.023
			c0.106,0.009,0.119,0.009,0.119,0.009c0.105-0.007,0.111-0.008,0.111-0.008c0.104-0.024,0.109-0.026,0.109-0.026
			c0.107-0.047,0.112-0.05,0.112-0.05c0.098-0.069,0.108-0.077,0.108-0.077c0.098-0.101,0.107-0.111,0.107-0.111
			c0.073-0.102,0.081-0.114,0.081-0.114c0.06-0.105,0.067-0.119,0.067-0.119c0.049-0.104,0.062-0.135,0.062-0.135
			c0.039-0.098,0.051-0.133,0.051-0.133c0.335-1.082,0.365-2.133,0.428-3.237c0.223-5.423-0.241-11.315,0.816-16.659
			c0.868-4.467,3.014-8.594,5.258-12.512c1.164-1.917,2.677-4.016,4.825-4.821c1.015-0.376,1.994-0.374,3-0.201
			c1.747,0.316,3.401,1.07,4.998,1.822c3.801,1.821,7.845,4.199,12.023,4.966c2.934,0.538,5.969,0.206,8.894-0.243
			c2.745-0.409,5.739-1.023,8.519-0.802c4.026,0.24,7.319,3.104,10.485,5.305c0.951,0.648,2.061,1.352,3.138,1.682
			c1.164,0.358,2.238,0.253,3.383,0.223c0.294-0.007,0.646,0.004,0.875,0.034c0.107,0.015,0.142,0.021,0.142,0.021
			c0.105,0.019,0.139,0.026,0.139,0.026c0.102,0.024,0.136,0.033,0.136,0.033c0.1,0.029,0.132,0.04,0.132,0.04
			c0.097,0.035,0.129,0.047,0.129,0.047c0.094,0.041,0.126,0.055,0.126,0.055c0.107,0.056,0.122,0.064,0.122,0.064
			c0.104,0.064,0.118,0.073,0.118,0.073c0.1,0.072,0.123,0.09,0.123,0.09c0.092,0.077,0.114,0.097,0.114,0.097
			c0.089,0.085,0.111,0.108,0.111,0.108c0.086,0.094,0.107,0.118,0.107,0.118c0.082,0.102,0.103,0.128,0.103,0.128
			c0.06,0.081,0.079,0.109,0.079,0.109c0.058,0.086,0.077,0.116,0.077,0.116c0.486,0.79,0.694,1.578,0.885,2.412
			c0.243,1.128,0.364,2.315,0.441,3.466c0.352,5.516-0.374,12.694-0.723,18.251c-0.048,1.146-0.149,2.421-0.006,3.553
			c0.017,0.1,0.022,0.123,0.022,0.123c0.02,0.089,0.025,0.11,0.025,0.11c0.028,0.096,0.034,0.113,0.034,0.113
			c0.046,0.106,0.053,0.119,0.053,0.119c0.096,0.106,0.099,0.108,0.099,0.108c0.105,0.022,0.109,0.022,0.109,0.022
			c0.104-0.036,0.108-0.038,0.108-0.038c0.102-0.072,0.11-0.08,0.11-0.08c0.1-0.099,0.119-0.12,0.119-0.12
			c0.077-0.093,0.097-0.118,0.097-0.118c0.767-1.073,1.374-2.83,1.919-4.023c0.579-1.299,1.241-2.755,2.191-3.806
			c0.083-0.088,0.125-0.131,0.125-0.131c0.084-0.083,0.127-0.123,0.127-0.123c0.086-0.077,0.129-0.115,0.129-0.115
			c0.087-0.072,0.131-0.106,0.131-0.106c0.089-0.066,0.111-0.082,0.111-0.082c0.09-0.061,0.112-0.075,0.112-0.075
			c0.105-0.064,0.136-0.081,0.136-0.081c0.091-0.048,0.122-0.064,0.122-0.064c0.092-0.043,0.123-0.056,0.123-0.056
			c0.093-0.038,0.124-0.049,0.124-0.049c0.094-0.032,0.125-0.042,0.125-0.042c0.094-0.027,0.126-0.035,0.126-0.035
			c0.095-0.022,0.126-0.028,0.126-0.028c0.095-0.017,0.127-0.022,0.127-0.022c0.095-0.012,0.127-0.015,0.127-0.015
			c0.095-0.007,0.127-0.009,0.127-0.009c0.095-0.002,0.127-0.002,0.127-0.002c0.095,0.003,0.126,0.004,0.126,0.004
			c0.094,0.007,0.126,0.01,0.126,0.01c0.094,0.012,0.125,0.016,0.125,0.016c0.093,0.016,0.124,0.022,0.124,0.022
			c0.092,0.021,0.123,0.028,0.123,0.028c0.091,0.025,0.121,0.034,0.121,0.034c0.09,0.029,0.12,0.039,0.12,0.039
			c0.089,0.033,0.118,0.045,0.118,0.045c0.087,0.037,0.116,0.05,0.116,0.05c0.085,0.041,0.114,0.056,0.114,0.056
			c0.084,0.045,0.111,0.061,0.111,0.061c0.082,0.049,0.109,0.066,0.109,0.066c0.106,0.071,0.132,0.089,0.132,0.089
			c0.102,0.077,0.127,0.097,0.127,0.097c0.098,0.083,0.122,0.104,0.122,0.104c0.094,0.088,0.116,0.111,0.116,0.111
			c0.089,0.094,0.111,0.118,0.111,0.118c0.084,0.099,0.104,0.125,0.104,0.125c0.079,0.104,0.098,0.131,0.098,0.131
			c0.063,0.093,0.087,0.132,0.087,0.132c0.048,0.08,0.071,0.121,0.071,0.121c0.045,0.083,0.066,0.125,0.066,0.125
			c0.041,0.085,0.061,0.129,0.061,0.129c0.038,0.088,0.057,0.133,0.057,0.133c0.035,0.091,0.052,0.137,0.052,0.137
			c0.032,0.093,0.048,0.14,0.048,0.14c0.368,1.234,0.277,2.418,0.133,3.66c-0.29,2.142-0.882,4.335-1.456,6.419
			c-0.489,1.629-2.349,8.475-2.9,9.955c-0.232,0.644-0.587,1.441-0.959,1.962c-0.062,0.085-0.093,0.127-0.093,0.127
			c-0.063,0.081-0.095,0.12-0.095,0.12c-0.065,0.076-0.098,0.113-0.098,0.113c-0.1,0.106-0.134,0.139-0.134,0.139
			c-0.103,0.095-0.121,0.111-0.121,0.111c-0.107,0.086-0.125,0.1-0.125,0.1c-0.091,0.064-0.11,0.077-0.11,0.077
			c-0.094,0.057-0.113,0.068-0.113,0.068c-0.096,0.05-0.116,0.059-0.116,0.059c-0.099,0.043-0.119,0.05-0.119,0.05
			c-0.101,0.035-0.122,0.041-0.122,0.041c-0.091,0.024-0.108,0.028-0.108,0.028c-0.101,0.019-0.118,0.022-0.118,0.022
			c-0.086,0.011-0.121,0.015-0.121,0.015c-0.105,0.007-0.141,0.008-0.141,0.008c-0.072,0.001-0.108,0-0.108,0
			c-0.073-0.002-0.109-0.004-0.109-0.004c-1.217-0.096-2.318-0.763-3.49-0.894c-0.072-0.006-0.107-0.009-0.107-0.009
			c-0.106-0.005-0.141-0.005-0.141-0.005c-0.104,0.002-0.138,0.003-0.138,0.003c-0.101,0.008-0.118,0.01-0.118,0.01
			c-0.099,0.015-0.115,0.018-0.115,0.018c-0.089,0.02-0.108,0.024-0.108,0.024c-0.093,0.027-0.111,0.033-0.111,0.033
			c-0.09,0.034-0.108,0.041-0.108,0.041c-0.105,0.049-0.123,0.058-0.123,0.058c-0.102,0.058-0.119,0.068-0.119,0.068
			c-0.099,0.066-0.116,0.078-0.116,0.078c-0.096,0.074-0.112,0.087-0.112,0.087c-0.094,0.082-0.124,0.111-0.124,0.111
			c-0.091,0.091-0.12,0.122-0.12,0.122c-0.088,0.099-0.116,0.134-0.116,0.134c-0.085,0.107-0.113,0.144-0.113,0.144
			c-0.678,0.966-0.988,1.949-1.354,3.012c-0.61,1.933-1.373,4.373-2.151,6.215c-2.076,5.126-5.486,9.671-9.714,13.222
			c-3.724,3.134-8.153,5.59-12.978,6.459c-4.36,0.773-8.88,0.208-13.08-1.108c-4.668-1.483-9.079-3.891-12.726-7.174
			C355.818,259.412,353.049,255.421,350.791,251.235z"/>
	</g>
	<g id="POLYLINE_889_">
		
			<path fill="none" stroke="#FF6B6B" stroke-width="2.75" stroke-linecap="round" stroke-linejoin="round" stroke-miterlimit="10" d="
			M351.618,252.714c-0.441,3.183-2.576,22.141-2.953,25.779c-0.107,1.163-0.236,2.473-0.272,3.636
			c-0.123,2.832,0.093,5.707,0.584,8.499c0.899,5.125,2.483,10.185,4.345,15.039c1.952,4.987,4.27,9.938,7.201,14.427
			c3.129,4.797,7.056,9.121,11.628,12.579c3.394,2.531,7.29,4.667,11.558,5.131c4.747,0.533,9.355-1.589,13.048-4.421
			c5.055-3.913,8.996-9.221,11.495-15.091c1.499-3.538,2.462-7.312,2.874-11.132c0.697-6.545-0.174-13.203-1.328-19.649
			c-1.033-5.542-3.17-15.58-3.765-21.057c-0.404-3.434-0.587-6.992-0.587-10.45"/>
	</g>
	<g id="POLYLINE_888_">
		
			<path fill="none" stroke="#FF6B6B" stroke-width="2.75" stroke-linecap="round" stroke-linejoin="round" stroke-miterlimit="10" d="
			M494.424,377.248l0.403-1.66c0.244-1.055,0.438-2.21,0.424-3.275c-0.001-0.86-0.154-1.803-0.404-2.608
			c-0.353-1.159-0.886-2.284-1.435-3.361c-1.268-2.445-3.084-5.508-4.204-8.014c-3.004-6.491-4.256-15.768-5.767-22.762
			c-1.337-6.387-3.269-12.708-5.807-18.72c-1.836-4.301-3.929-8.578-6.691-12.367c-1.616-2.21-3.603-4.16-5.839-5.739
			c-5.99-4.095-12.819-7.494-19.298-10.75c-12.552-6.15-25.825-11.771-39.029-16.368"/>
	</g>
	<g id="POLYLINE_857_">
		
			<path fill="none" stroke="#FF6B6B" stroke-width="2.75" stroke-linecap="round" stroke-linejoin="round" stroke-miterlimit="10" d="
			M339.606,218.53c-0.586-3.82-0.858-7.845-1-11.709c-0.075-3.904-0.296-8.444-0.15-12.32c0.158-4.467,0.558-9.042,2.172-13.247
			c0.776-2.012,1.939-3.875,3.374-5.481c1.187-1.341,2.567-2.54,3.985-3.63c2.687-2.038,10.077-6.9,12.93-8.829
			c4.232-2.768,8.795-5.263,13.789-6.289c3.177-0.661,6.474-0.716,9.696-0.399c3.498,0.351,6.966,1.143,10.287,2.295
			c3.358,1.177,6.625,2.722,9.515,4.813c2.429,1.749,4.559,3.917,6.359,6.304c3.388,4.612,6.205,9.737,8.28,15.07
			c1.619,4.212,2.678,8.652,3.223,13.128c0.389,3.258,0.528,6.581,0.206,9.851c-0.285,2.992-1.013,5.954-1.929,8.812"/>
	</g>
</g>
<g id="AG-OUTLINE">
	<g id="POLYLINE_997_">
		
			<path fill="none" stroke="#FF6B6B" stroke-width="3.5" stroke-linecap="round" stroke-linejoin="round" stroke-miterlimit="10" d="
			M269.839,372.048c-0.702,1.878-1.659,3.691-2.629,5.441c-1.756,3.147-4.102,6.763-6.086,9.8
			c-7.076,10.301-14.443,22.828-22.041,32.683c-15.68,20.166-37.383,41.515-52.548,62.067c-2.38,3.298-5.183,7.89-8.019,10.738
			c-1.618,1.621-3.569,2.844-5.759,3.495c-4.664,1.355-10.307,1.209-15.132,1.655c-4.068,0.348-8.242,0.934-11.934,2.775
			c-5.407,2.671-9.44,7.514-12.181,12.796c-1.712,3.26-2.913,6.822-3.9,10.363c-1.144,4.165-2.378,9.245-4.191,13.154
			c-1.199,2.65-3.046,5.361-4.433,7.913c-0.668,1.282-1.415,2.775-1.322,4.21c0.007,0.073,0.011,0.11,0.011,0.11
			c0.009,0.072,0.015,0.108,0.015,0.108c0.019,0.107,0.026,0.142,0.026,0.142c0.024,0.105,0.033,0.14,0.033,0.14
			c0.029,0.103,0.04,0.137,0.04,0.137c0.035,0.101,0.048,0.134,0.048,0.134c0.041,0.099,0.055,0.132,0.055,0.132
			c0.047,0.097,0.063,0.129,0.063,0.129c0.04,0.073,0.064,0.115,0.064,0.115c0.051,0.082,0.077,0.122,0.077,0.122
			c0.056,0.08,0.085,0.12,0.085,0.12c0.061,0.078,0.092,0.117,0.092,0.117c0.065,0.077,0.099,0.115,0.099,0.115
			c0.07,0.075,0.107,0.112,0.107,0.112c0.075,0.073,0.114,0.11,0.114,0.11c0.08,0.072,0.121,0.107,0.121,0.107
			c0.084,0.07,0.128,0.105,0.128,0.105c1.455,1.092,3.291,1.508,5.029,1.853c3.124,0.559,6.365,0.671,9.534,0.651
			c3.609-0.043,7.287-0.295,10.866-0.768c3.71-0.502,7.437-1.304,10.938-2.648c3.207-1.223,6.244-2.933,8.934-5.068
			c3.455-2.734,6.392-6.156,9.157-9.569c4.2-5.285,9.591-12.669,14.364-17.339c3.005-2.976,6.369-5.674,9.827-8.107
			c-4.399,4.109-7.514,9.507-9.086,15.304c-1.301,4.717-2.208,9.608-2.322,14.509c-0.09,4.589,0.478,9.288,2.345,13.516
			c2.592,5.946,7.539,10.595,13.115,13.764c3.903,2.215,8.218,3.696,12.609,4.587c5.463,1.104,11.498,1.279,17.056,1.635
			c9.486,0.411,19.363,0.726,28.842,0.127c9.552-0.581,19.33-2.242,28.683-4.278c4.182,1.925,8.698,3.155,13.244,3.846
			c2.644,0.402,5.388,0.634,8.06,0.72c0.429,0.013,1.275,0.032,1.702,0.036c0,0,0.862,0.005,0.862,0.005h30.532
			c4.624-0.057,30.495,0.167,34.621-0.2c8.734-0.511,18.03-1.734,26.695-2.996c18.899,2.543,38.758,3.142,57.828,3.196
			c1.816-0.036,59.41,0.105,58.985-0.116c5.32-0.252,10.699-0.884,15.835-2.337c9.338-2.563,17.272-8.864,23.099-16.467
			c2.949-3.697,4.924-8.174,5.554-12.868c0.438-3.117,0.341-6.31-0.129-9.417c-0.311-2.035-0.758-4.079-1.428-6.027
			c-2.149-6.384-6.525-11.812-11.729-16.001c3.213,2.332,6.51,4.75,9.213,7.672c1.176,1.283,2.196,2.741,3.095,4.229
			c1.266,2.166,2.837,4.881,4.285,6.875c1.868,2.599,3.996,5.12,6.161,7.477c4.67,5.041,9.835,9.735,15.493,13.647
			c3.938,2.724,8.27,4.948,12.746,6.641c5.043,1.988,11.969,3.604,17.264,4.971c1.844,0.455,3.765,0.919,5.663,1.058
			c1.654,0.136,3.487-0.049,4.945-0.726c1.937-0.891,3.284-2.375,4.454-4.037c0.922-1.346,1.672-2.824,2.211-4.364
			c0.463-1.316,0.805-2.869,0.762-4.223c-0.018-1.132-0.378-2.18-0.982-3.049c-1.139-1.624-3.114-2.946-4.599-4.197
			c-2.735-2.261-5.226-4.878-7.538-7.566c-2.681-3.139-5.184-6.507-7.393-9.994c-2.946-4.497-5.021-9.682-7.634-14.312
			c-1.146-1.968-2.484-3.878-4.236-5.353c-0.869-0.733-1.843-1.353-2.882-1.815c-1.317-0.587-2.738-0.947-4.156-1.195
			c-4.434-0.776-10.118-0.494-14.601-0.917c-1.524-0.151-3.191-0.423-4.586-1.03c-1.871-0.799-3.216-2.141-4.421-3.694
			c-1.051-1.354-2.366-3.342-3.396-4.714c-6.158-8.017-17.178-18.635-23.579-26.473c-2.294-2.737-4.584-5.69-6.652-8.601
			c-5.79-7.999-11.118-17.723-17.264-25.457c-1.576-1.946-3.376-3.79-5.199-5.505c-3.222-2.997-7.106-6.327-9.541-10.035
			c-2.345-3.47-4.104-7.367-5.728-11.216c-3.604-8.713-7.286-19.374-11.94-27.577l0.403-1.66c0.244-1.055,0.438-2.21,0.424-3.275
			c-0.001-0.86-0.154-1.803-0.404-2.608c-0.353-1.159-0.886-2.284-1.435-3.361c-1.268-2.445-3.084-5.508-4.204-8.014
			c-3.004-6.491-4.256-15.768-5.767-22.762c-1.337-6.387-3.269-12.708-5.807-18.72c-1.836-4.301-3.929-8.578-6.691-12.367
			c-1.616-2.21-3.603-4.16-5.839-5.739c-5.99-4.095-12.819-7.494-19.298-10.75c-12.552-6.15-25.825-11.771-39.029-16.368
			c-0.883-5.131-1.349-10.415-1.332-15.621c1.499-2.442,2.642-5.114,3.553-7.826c0.559-1.621,1.257-4.347,2.11-5.798
			c0.125-0.209,0.234-0.361,0.324-0.478c0.086-0.105,0.115-0.139,0.115-0.139c0.088-0.097,0.118-0.128,0.118-0.128
			c0.091-0.089,0.122-0.117,0.122-0.117c0.094-0.08,0.11-0.093,0.11-0.093c0.097-0.072,0.114-0.083,0.114-0.083
			c0.1-0.064,0.117-0.074,0.117-0.074c0.103-0.055,0.121-0.064,0.121-0.064c0.106-0.046,0.124-0.053,0.124-0.053
			c0.091-0.032,0.109-0.037,0.109-0.037c0.093-0.025,0.112-0.029,0.112-0.029c0.1-0.019,0.117-0.022,0.117-0.022
			c0.1-0.012,0.117-0.013,0.117-0.013c0.085-0.005,0.119-0.006,0.119-0.006c0.104,0,0.139,0.001,0.139,0.001
			c0.106,0.006,0.142,0.009,0.142,0.009c1.214,0.131,2.31,0.796,3.489,0.895c0.073,0.004,0.11,0.006,0.11,0.006
			c0.072,0.001,0.108,0.001,0.108,0.001c0.107-0.003,0.142-0.006,0.142-0.006c0.104-0.01,0.122-0.012,0.122-0.012
			c0.102-0.017,0.119-0.02,0.119-0.02c0.1-0.023,0.121-0.029,0.121-0.029c0.102-0.032,0.122-0.039,0.122-0.039
			c0.099-0.04,0.119-0.049,0.119-0.049c0.097-0.048,0.116-0.058,0.116-0.058c0.094-0.055,0.113-0.067,0.113-0.067
			c0.092-0.062,0.11-0.075,0.11-0.075c0.09-0.069,0.108-0.084,0.108-0.084c0.105-0.092,0.122-0.108,0.122-0.108
			c0.102-0.101,0.135-0.136,0.135-0.136c0.066-0.073,0.098-0.111,0.098-0.111c0.064-0.078,0.096-0.118,0.096-0.118
			c0.063-0.082,0.094-0.125,0.094-0.125c0.476-0.683,0.71-1.272,0.99-2.005c0.536-1.432,2.421-8.359,2.9-9.955
			c0.574-2.085,1.166-4.276,1.456-6.419c0.15-1.177,0.222-2.537-0.133-3.66c-0.031-0.094-0.048-0.14-0.048-0.14
			c-0.034-0.092-0.052-0.137-0.052-0.137c-0.037-0.089-0.057-0.133-0.057-0.133c-0.04-0.086-0.061-0.129-0.061-0.129
			c-0.044-0.084-0.066-0.125-0.066-0.125c-0.047-0.081-0.071-0.121-0.071-0.121c-0.066-0.102-0.083-0.126-0.083-0.126
			c-0.068-0.093-0.085-0.116-0.085-0.116c-0.072-0.089-0.09-0.111-0.09-0.111c-0.095-0.106-0.115-0.126-0.115-0.126
			c-0.101-0.099-0.121-0.119-0.121-0.119c-0.106-0.093-0.127-0.111-0.127-0.111c-0.088-0.069-0.11-0.086-0.11-0.086
			c-0.091-0.065-0.114-0.08-0.114-0.08c-0.094-0.06-0.118-0.075-0.118-0.075c-0.096-0.055-0.121-0.069-0.121-0.069
			c-0.099-0.05-0.124-0.062-0.124-0.062c-0.101-0.045-0.126-0.056-0.126-0.056c-0.103-0.04-0.129-0.05-0.129-0.05
			c-0.105-0.035-0.131-0.043-0.131-0.043c-0.106-0.03-0.133-0.036-0.133-0.036c-0.081-0.018-0.108-0.024-0.108-0.024
			c-0.081-0.015-0.108-0.02-0.108-0.02c-0.082-0.012-0.109-0.015-0.109-0.015c-0.082-0.008-0.11-0.01-0.11-0.01
			c-0.083-0.005-0.11-0.006-0.11-0.006c-0.083-0.001-0.111-0.001-0.111-0.001c-0.083,0.003-0.111,0.004-0.111,0.004
			c-0.083,0.006-0.111,0.009-0.111,0.009c-0.083,0.01-0.111,0.014-0.111,0.014c-0.083,0.014-0.111,0.019-0.111,0.019
			c-0.083,0.018-0.111,0.024-0.111,0.024c-0.083,0.022-0.11,0.029-0.11,0.029c-0.082,0.026-0.11,0.035-0.11,0.035
			c0.042-0.334,0.3-0.973,0.382-1.322c0.378-1.29,0.74-2.676,1-3.993c0.505-2.511,0.726-5.095,0.697-7.656
			c-0.071-5.168-0.906-10.341-2.395-15.289c-1.258-4.141-3.069-8.149-5.195-11.915c-1.881-3.287-3.935-6.567-6.532-9.34
			c-4.076-4.422-9.59-7.245-15.284-8.992c-5.777-1.739-11.985-2.55-17.96-1.433c-5.138,0.978-9.829,3.526-14.165,6.364
			c-2.937,2.024-8.138,5.455-11.035,7.444c-1.091,0.765-2.223,1.608-3.242,2.468c-1.288,1.087-2.504,2.29-3.532,3.629
			c-1.985,2.529-3.105,5.621-3.732,8.747c-0.927,4.609-1.003,9.402-0.951,14.09c0.123,6.182,0.24,12.727,1.179,18.84
			c-0.312-0.192-0.692-0.386-0.994-0.494c-0.107-0.037-0.16-0.054-0.16-0.054c-0.106-0.031-0.132-0.038-0.132-0.038
			c-0.104-0.025-0.13-0.031-0.13-0.031c-0.103-0.02-0.129-0.024-0.129-0.024c-0.102-0.013-0.127-0.016-0.127-0.016
			c-0.103-0.007-0.12-0.008-0.12-0.008c-0.104-0.001-0.121-0.001-0.121-0.001c-0.102,0.005-0.119,0.007-0.119,0.007
			c-0.1,0.011-0.133,0.016-0.133,0.016c-0.098,0.018-0.131,0.025-0.131,0.025c-0.096,0.025-0.128,0.034-0.128,0.034
			c-0.094,0.031-0.125,0.042-0.125,0.042c-0.092,0.037-0.122,0.05-0.122,0.05c-0.09,0.042-0.119,0.057-0.119,0.057
			c-0.087,0.048-0.116,0.065-0.116,0.065c-0.085,0.053-0.113,0.072-0.113,0.072c-0.083,0.058-0.11,0.078-0.11,0.078
			c-0.106,0.084-0.132,0.106-0.132,0.106c-0.102,0.092-0.127,0.115-0.127,0.115c-0.098,0.098-0.121,0.124-0.121,0.124
			c-0.093,0.105-0.116,0.132-0.116,0.132c-0.067,0.082-0.088,0.11-0.088,0.11c-0.064,0.085-0.085,0.114-0.085,0.114
			c-0.061,0.088-0.081,0.118-0.081,0.118c-0.058,0.091-0.077,0.122-0.077,0.122c-0.498,0.824-0.703,1.789-0.593,2.666
			c0.199,1.5,1.043,3.028,1.588,4.407c1.155,2.791,2.138,6.527,3.26,9.334c0.586,1.448,1.295,3.07,2.349,4.203
			c0.092,0.094,0.123,0.124,0.123,0.124c0.093,0.088,0.124,0.117,0.124,0.117c0.094,0.083,0.126,0.109,0.126,0.109
			c0.095,0.077,0.127,0.101,0.127,0.101c0.097,0.071,0.129,0.093,0.129,0.093c0.098,0.065,0.131,0.085,0.131,0.085
			c0.099,0.058,0.133,0.077,0.133,0.077c0.101,0.052,0.134,0.068,0.134,0.068c0.074,0.033,0.111,0.049,0.111,0.049
			c0.074,0.029,0.112,0.043,0.112,0.043c0.075,0.026,0.113,0.038,0.113,0.038c0.076,0.022,0.113,0.032,0.113,0.032
			c0.076,0.019,0.114,0.028,0.114,0.028c0.076,0.016,0.115,0.023,0.115,0.023c0.077,0.013,0.115,0.019,0.115,0.019
			c0.807,0.112,1.565-0.056,2.332-0.161c0.103-0.015,0.314-0.037,0.376-0.04c0.088-0.005,0.117-0.006,0.117-0.006
			c0.084-0.001,0.112-0.001,0.112-0.001c0.107,0.004,0.133,0.006,0.133,0.006c0.1,0.011,0.113,0.013,0.113,0.013
			c0.106,0.022,0.117,0.025,0.117,0.025c0.097,0.032,0.108,0.037,0.108,0.037c0.106,0.054,0.114,0.06,0.114,0.06
			c0.102,0.08,0.109,0.087,0.109,0.087c0.087,0.1,0.094,0.109,0.094,0.109c0.064,0.1,0.069,0.109,0.069,0.109
			c0.045,0.091,0.055,0.113,0.055,0.113c0.035,0.089,0.043,0.112,0.043,0.112c0.031,0.096,0.038,0.121,0.038,0.121
			c0.276,1.198,0.114,2.71,0.401,3.96c0.539,2.638,1.925,4.98,3.217,7.303c-0.806,5.734-1.632,14.257-2.273,20.078
			c-2.775,0.778-6.375,1.692-8.982,2.861c-2.715,1.163-5.324,2.76-7.819,4.335c-7.427,4.808-16.216,10.919-24.279,14.45
			c-6.349,2.9-13.995,5.733-19.354,10.259c-1.449,1.212-2.796,2.576-3.965,4.059c-1.433,1.815-2.633,3.84-3.666,5.908
			c-2.491,5.025-4.155,10.539-5.64,15.936c-1.773,6.611-3.81,15.589-6.268,21.889c-0.765,2.033-2.297,5.784-2.917,7.81
			c-0.406,1.299-0.77,2.803-0.767,4.14C265.65,367.56,267.847,369.935,269.839,372.048z"/>
	</g>
	<g id="POLYLINE_998_">
		
			<path fill="none" stroke="#FF6B6B" stroke-width="3.5" stroke-linecap="round" stroke-linejoin="round" stroke-miterlimit="10" d="
			M457.763,395.423c2.243,6.137,5.345,12.021,8.646,17.65c2.405,4.085,6.125,9.152,8.873,13.067
			c3.7,5.197,10.426,16.885,13.831,22.5c3.15,5.134,6.621,10.487,10.22,15.311c12.73,17.345,30.579,30.209,48.292,42.054
			c-7.535-4.496-15.825-7.767-24.336-9.873c-2.817-0.698-5.832-1.307-8.697-1.77c-3.143-0.5-6.944-0.931-10.097-1.436
			c1.403-0.496,2.728-1.237,3.857-2.21c1.376-1.167,2.443-2.668,2.69-4.384c0.302-2.022-0.593-3.795-1.513-5.499
			c-0.748-1.334-1.645-2.641-2.55-3.876c-0.539-0.721-1.129-1.508-1.747-2.157c-1.247-1.345-2.685-2.52-4.21-3.534
			c-2.796-1.856-5.922-3.224-9.095-4.296c-4.687-1.537-10.157-3.396-14.932-4.551c-2.133-0.448-4.175,0.111-6.085,0.972
			c-2.635,1.189-4.998,3.106-7.216,4.939c-3.173,2.629-6.494,5.61-9.411,8.521c-1.238,1.259-2.694,2.78-4.034,3.928
			c0.385-2.586,0.871-5.38,0.54-7.988c-0.26-2.316-1.132-4.544-2.016-6.685c-1.755-4.117-3.896-8.697-4.959-13.027
			c-0.859-3.396-1.208-6.934-1.292-10.431c-0.148-6.409,0.616-13.111,1.423-19.473c1.68-12.346,3.532-26.313,6.465-38.374
			c1.18,2.534,2.473,5.083,4.157,7.323C455.434,393.294,456.693,394.431,457.763,395.423z"/>
	</g>
	<g id="POLYLINE_999_">
		
			<path fill="none" stroke="#FF6B6B" stroke-width="3.5" stroke-linecap="round" stroke-linejoin="round" stroke-miterlimit="10" d="
			M307.57,377.675c3.539,14.658,5.413,32.374,7.233,47.43c0.732,6.346,1.854,14.642,1.92,20.963
			c0.058,3.893-0.151,7.852-1.023,11.656c-0.631,2.837-1.768,5.574-3.045,8.177c-0.586,1.197-2.326,4.576-2.809,5.748
			c-0.512,1.195-1.016,2.603-1.032,3.865c-0.009,0.863,0.216,1.686,0.635,2.345c0.555,0.881,1.338,1.534,2.13,2.031
			c0.344,0.197,0.552,0.341,0.798,0.46c0.106,0.055-0.001,0.18-0.001,0.18s-0.109,0.122-0.109,0.122
			c-0.154,0.177-0.431,0.449-0.568,0.576c-1.396,1.258-3.036,2.081-4.699,2.905c-3.437,1.628-7.115,2.985-10.72,4.193
			c-8.724,2.782-17.951,4.082-27.043,4.965c-5.621,0.64-36.871,3.156-41.826,4.274c-5.183,0.963-10.309,2.454-15.141,4.57
			c14.35-8.434,29.096-17.472,40.461-29.778c8.772-9.375,16.048-20.234,22.65-31.214c9.724-16.305,18.291-33.649,25.365-51.267
			c0.088-0.019,0.117-0.027,0.117-0.027c0.088-0.026,0.117-0.035,0.117-0.035c0.088-0.032,0.117-0.044,0.117-0.044
			c0.088-0.039,0.117-0.053,0.117-0.053c0.088-0.045,0.117-0.061,0.117-0.061c0.087-0.051,0.117-0.069,0.117-0.069
			c0.087-0.057,0.116-0.078,0.116-0.078c0.087-0.063,0.116-0.085,0.116-0.085c0.087-0.069,0.116-0.093,0.116-0.093
			c1.096-0.976,1.713-2.16,2.379-3.408C305.479,383.349,306.555,380.378,307.57,377.675z"/>
	</g>
</g>
</svg>
