<?xml version="1.0" encoding="UTF-8" standalone="no"?>
<!-- Created with Inkscape (http://www.inkscape.org/) -->

<svg
   xmlns:dc="http://purl.org/dc/elements/1.1/"
   xmlns:cc="http://creativecommons.org/ns#"
   xmlns:rdf="http://www.w3.org/1999/02/22-rdf-syntax-ns#"
   xmlns:svg="http://www.w3.org/2000/svg"
   xmlns="http://www.w3.org/2000/svg"
   xmlns:sodipodi="http://sodipodi.sourceforge.net/DTD/sodipodi-0.dtd"
   xmlns:inkscape="http://www.inkscape.org/namespaces/inkscape"
   width="100.0019846mm"
   height="100.147555mm"
   viewBox="0 0 24.810182 46.585825"
   id="svg2"
   version="1.1"
   inkscape:version="0.91 r13725"
   sodipodi:docname="pink ribbon breast cancer.svg">
  <defs
     id="defs4">
    <clipPath
       id="clipEmfPath1"
       clipPathUnits="userSpaceOnUse">
      <path
         inkscape:connector-curvature="0"
         id="path3341"
         d="m 5.00114,-1.25029 511.36686,0 0,867.69829 -511.36686,0 z" />
    </clipPath>
    <pattern
       y="0"
       x="0"
       height="6"
       width="6"
       patternUnits="userSpaceOnUse"
       id="EMFhbasepattern" />
    <clipPath
       id="clipEmfPath1-9"
       clipPathUnits="userSpaceOnUse">
      <path
         inkscape:connector-curvature="0"
         id="path3734"
         d="m 5.00114,-1.25029 497.61386,0 0,175.04029 -497.61386,0 z" />
    </clipPath>
    <pattern
       y="0"
       x="0"
       height="6"
       width="6"
       patternUnits="userSpaceOnUse"
       id="EMFhbasepattern-1" />
    <clipPath
       id="clipEmfPath1-97"
       clipPathUnits="userSpaceOnUse">
      <path
         inkscape:connector-curvature="0"
         id="path3839"
         d="m 5.00114,-1.25029 497.61386,0 0,175.04029 -497.61386,0 z" />
    </clipPath>
    <pattern
       y="0"
       x="0"
       height="6"
       width="6"
       patternUnits="userSpaceOnUse"
       id="EMFhbasepattern-12" />
    <clipPath
       id="clipEmfPath1-97-3"
       clipPathUnits="userSpaceOnUse">
      <path
         inkscape:connector-curvature="0"
         id="path3839-7"
         d="m 5.00114,-1.25029 497.61386,0 0,175.04029 -497.61386,0 z" />
    </clipPath>
    <clipPath
       id="clipPath3949"
       clipPathUnits="userSpaceOnUse">
      <path
         inkscape:connector-curvature="0"
         id="path3951"
         d="m 5.00114,-1.25029 497.61386,0 0,175.04029 -497.61386,0 z" />
    </clipPath>
    <clipPath
       id="clipPath3953"
       clipPathUnits="userSpaceOnUse">
      <path
         inkscape:connector-curvature="0"
         id="path3955"
         d="m 5.00114,-1.25029 497.61386,0 0,175.04029 -497.61386,0 z" />
    </clipPath>
    <clipPath
       id="clipPath3957"
       clipPathUnits="userSpaceOnUse">
      <path
         inkscape:connector-curvature="0"
         id="path3959"
         d="m 5.00114,-1.25029 497.61386,0 0,175.04029 -497.61386,0 z" />
    </clipPath>
    <clipPath
       id="clipPath3961"
       clipPathUnits="userSpaceOnUse">
      <path
         inkscape:connector-curvature="0"
         id="path3963"
         d="m 5.00114,-1.25029 497.61386,0 0,175.04029 -497.61386,0 z" />
    </clipPath>
    <clipPath
       id="clipPath3965"
       clipPathUnits="userSpaceOnUse">
      <path
         inkscape:connector-curvature="0"
         id="path3967"
         d="m 5.00114,-1.25029 497.61386,0 0,175.04029 -497.61386,0 z" />
    </clipPath>
    <clipPath
       id="clipPath3969"
       clipPathUnits="userSpaceOnUse">
      <path
         inkscape:connector-curvature="0"
         id="path3971"
         d="m 5.00114,-1.25029 497.61386,0 0,175.04029 -497.61386,0 z" />
    </clipPath>
    <clipPath
       id="clipEmfPath1-97-3-6"
       clipPathUnits="userSpaceOnUse">
      <path
         inkscape:connector-curvature="0"
         id="path3839-7-5"
         d="m 5.00114,-1.25029 497.61386,0 0,175.04029 -497.61386,0 z" />
    </clipPath>
    <clipPath
       id="clipPath4087"
       clipPathUnits="userSpaceOnUse">
      <path
         inkscape:connector-curvature="0"
         id="path4089"
         d="m 5.00114,-1.25029 497.61386,0 0,175.04029 -497.61386,0 z" />
    </clipPath>
    <clipPath
       id="clipPath4091"
       clipPathUnits="userSpaceOnUse">
      <path
         inkscape:connector-curvature="0"
         id="path4093"
         d="m 5.00114,-1.25029 497.61386,0 0,175.04029 -497.61386,0 z" />
    </clipPath>
    <clipPath
       id="clipPath4095"
       clipPathUnits="userSpaceOnUse">
      <path
         inkscape:connector-curvature="0"
         id="path4097"
         d="m 5.00114,-1.25029 497.61386,0 0,175.04029 -497.61386,0 z" />
    </clipPath>
    <clipPath
       id="clipPath4099"
       clipPathUnits="userSpaceOnUse">
      <path
         inkscape:connector-curvature="0"
         id="path4101"
         d="m 5.00114,-1.25029 497.61386,0 0,175.04029 -497.61386,0 z" />
    </clipPath>
    <clipPath
       id="clipEmfPath1-97-3-6-9"
       clipPathUnits="userSpaceOnUse">
      <path
         inkscape:connector-curvature="0"
         id="path3839-7-5-8"
         d="m 5.00114,-1.25029 497.61386,0 0,175.04029 -497.61386,0 z" />
    </clipPath>
    <clipPath
       id="clipPath4191"
       clipPathUnits="userSpaceOnUse">
      <path
         inkscape:connector-curvature="0"
         id="path4193"
         d="m 5.00114,-1.25029 497.61386,0 0,175.04029 -497.61386,0 z" />
    </clipPath>
    <clipPath
       id="clipPath4195"
       clipPathUnits="userSpaceOnUse">
      <path
         inkscape:connector-curvature="0"
         id="path4197"
         d="m 5.00114,-1.25029 497.61386,0 0,175.04029 -497.61386,0 z" />
    </clipPath>
    <clipPath
       id="clipEmfPath1-5"
       clipPathUnits="userSpaceOnUse">
      <path
         inkscape:connector-curvature="0"
         id="path4256"
         d="m 5.00114,0 497.61386,0 0,175.04 -497.61386,0 z" />
    </clipPath>
    <pattern
       y="0"
       x="0"
       height="6"
       width="6"
       patternUnits="userSpaceOnUse"
       id="EMFhbasepattern-2" />
    <clipPath
       id="clipEmfPath1-1"
       clipPathUnits="userSpaceOnUse">
      <path
         inkscape:connector-curvature="0"
         id="path4361"
         d="m 5.00114,0 497.61386,0 0,175.04 -497.61386,0 z" />
    </clipPath>
    <pattern
       y="0"
       x="0"
       height="6"
       width="6"
       patternUnits="userSpaceOnUse"
       id="EMFhbasepattern-9" />
    <clipPath
       id="clipEmfPath1-1-0"
       clipPathUnits="userSpaceOnUse">
      <path
         inkscape:connector-curvature="0"
         id="path4361-5"
         d="m 5.00114,0 497.61386,0 0,175.04 -497.61386,0 z" />
    </clipPath>
    <clipPath
       id="clipPath4507"
       clipPathUnits="userSpaceOnUse">
      <path
         inkscape:connector-curvature="0"
         id="path4509"
         d="m 5.00114,0 497.61386,0 0,175.04 -497.61386,0 z" />
    </clipPath>
    <clipPath
       id="clipPath4511"
       clipPathUnits="userSpaceOnUse">
      <path
         inkscape:connector-curvature="0"
         id="path4513"
         d="m 5.00114,0 497.61386,0 0,175.04 -497.61386,0 z" />
    </clipPath>
  </defs>
  <sodipodi:namedview
     id="base"
     pagecolor="#ffffff"
     bordercolor="#666666"
     borderopacity="1.0"
     inkscape:pageopacity="0.0"
     inkscape:pageshadow="2"
     inkscape:zoom="5.6"
     inkscape:cx="64.486418"
     inkscape:cy="12.509704"
     inkscape:document-units="px"
     inkscape:current-layer="layer1"
     showgrid="false"
     fit-margin-top="0"
     fit-margin-left="0"
     fit-margin-right="0"
     fit-margin-bottom="0"
     inkscape:window-width="1366"
     inkscape:window-height="706"
     inkscape:window-x="-8"
     inkscape:window-y="-8"
     inkscape:window-maximized="1" />
  <metadata
     id="metadata7">
    <rdf:RDF>
      <cc:Work
         rdf:about="">
        <dc:format>image/svg+xml</dc:format>
        <dc:type
           rdf:resource="http://purl.org/dc/dcmitype/StillImage" />
        <dc:title></dc:title>
      </cc:Work>
    </rdf:RDF>
  </metadata>
  <g
     inkscape:label="Layer 1"
     inkscape:groupmode="layer"
     id="layer1"
     transform="translate(-109.00037,-354.81921)">
    <path
       inkscape:connector-curvature="0"
       id="path4388"
       d="m 109.65091,366.81391 c 0.022,-1.30119 2.64639,-11.86488 11.95296,-11.51202 9.30656,0.3308 11.53413,10.32112 11.51212,11.62228 -0.022,1.30116 -7.71878,-3.77119 -11.62247,-3.79323 -3.90342,-0.022 -11.86463,4.98412 -11.84261,3.68297 z"
       style="fill:#ff79bc;fill-opacity:1;fill-rule:evenodd;stroke:none" />
    <path
       inkscape:connector-curvature="0"
       id="path4390"
       d="m 109.65091,366.81391 c 0.022,-1.30119 2.64639,-11.86488 11.95296,-11.51202 9.30656,0.3308 11.53413,10.32112 11.51212,11.62228 -0.022,1.30116 -7.71878,-3.77119 -11.62247,-3.79323 -3.90342,-0.022 -11.86463,4.98412 -11.84261,3.68297"
       style="fill:none;stroke:#000000;stroke-width:0.94830716px;stroke-linecap:butt;stroke-linejoin:round;stroke-miterlimit:4;stroke-dasharray:none;stroke-opacity:1" />
    <path
       inkscape:connector-curvature="0"
       id="path4392"
       d="m 128.26403,357.74983 c 0.88222,0.97037 7.05725,6.26325 4.25647,12.74702 -2.80077,6.50584 -14.99644,25.07497 -18.23833,30.43408 -1.4557,-2.91112 -1.89681,-3.13154 -4.80765,-8.04954 3.24188,-5.60183 14.66568,-22.38454 17.79721,-28.18463 3.10953,-5.80012 -0.022,-7.45414 0.9923,-6.94693 z"
       style="fill:#ff79bc;fill-opacity:1;fill-rule:evenodd;stroke:none" />
    <path
       inkscape:connector-curvature="0"
       id="path4394"
       d="m 128.26403,357.74983 c 0.88222,0.97037 7.05725,6.26325 4.25647,12.74702 -2.80077,6.50584 -14.99644,25.07497 -18.23833,30.43408 -1.4557,-2.91112 -1.89681,-3.13154 -4.80765,-8.04954 3.24188,-5.60183 14.66568,-22.38454 17.79721,-28.18463 3.10953,-5.80012 -0.022,-7.45414 0.9923,-6.94693"
       style="fill:none;stroke:#000000;stroke-width:0.94830716px;stroke-linecap:butt;stroke-linejoin:round;stroke-miterlimit:4;stroke-dasharray:none;stroke-opacity:1" />
    <path
       inkscape:connector-curvature="0"
       id="path4396"
       d="m 114.5246,357.68368 c -0.88194,0.97036 -7.05696,6.26324 -4.25619,12.74702 2.80077,6.50581 15.01846,25.05306 18.26034,30.43391 1.45542,-2.91084 1.89653,-3.13154 4.80766,-8.04954 -3.24189,-5.60155 -14.68769,-22.40641 -17.79722,-28.18449 -3.13154,-5.80012 0.022,-7.45414 -1.01459,-6.9469 z"
       style="fill:#ff79bc;fill-opacity:1;fill-rule:evenodd;stroke:none" />
    <path
       inkscape:connector-curvature="0"
       id="path4398"
       d="m 114.5246,357.68368 c -0.88194,0.97036 -7.05696,6.26324 -4.25619,12.74702 2.80077,6.50581 15.01846,25.05306 18.26034,30.43391 1.45542,-2.91084 1.89653,-3.13154 4.80766,-8.04954 -3.24189,-5.60155 -14.68769,-22.40641 -17.79722,-28.18449 -3.13154,-5.80012 0.022,-7.45414 -1.01459,-6.9469"
       style="fill:none;stroke:#000000;stroke-width:0.94830716px;stroke-linecap:butt;stroke-linejoin:round;stroke-miterlimit:4;stroke-dasharray:none;stroke-opacity:1" />
  </g>
</svg>
