<?xml version="1.0" standalone="no"?>
<!DOCTYPE svg PUBLIC "-//W3C//DTD SVG 20010904//EN"
 "http://www.w3.org/TR/2001/REC-SVG-20010904/DTD/svg10.dtd">
<svg version="1.0" xmlns="http://www.w3.org/2000/svg"
 width="470.000000pt" height="246.000000pt" viewBox="0 0 470.000000 246.000000"
 preserveAspectRatio="xMidYMid meet">

<g transform="translate(0.000000,246.000000) scale(0.100000,-0.100000)"
fill="#000000" stroke="none">
<path d="M0 1230 l0 -1230 2350 0 2350 0 0 1230 0 1230 -2350 0 -2350 0 0
-1230z m2110 1045 c10 -12 10 -18 0 -30 -10 -12 -29 -15 -79 -13 -55 3 -66 6
-69 22 -5 27 15 36 79 36 38 0 61 -5 69 -15z m4 -76 c5 -5 4 -15 -4 -24 -20
-24 -143 -17 -148 8 -2 10 5 21 20 27 25 10 118 3 132 -11z m3 -75 c9 -25 -9
-34 -75 -37 -64 -2 -89 10 -79 37 5 13 22 16 77 16 55 0 72 -3 77 -16z m-7
-69 c19 -22 1 -36 -54 -42 -60 -7 -96 3 -96 26 0 27 9 31 75 31 44 0 66 -5 75
-15z m-5 -69 c17 -12 17 -16 6 -30 -11 -13 -28 -16 -80 -14 -55 3 -66 6 -69
22 -2 10 2 22 10 27 21 14 112 10 133 -5z m8 -76 c4 -3 5 -14 1 -24 -10 -25
-147 -19 -152 7 -2 10 5 21 20 26 24 10 117 4 131 -9z m1 -77 c10 -25 -5 -33
-72 -36 -64 -2 -89 10 -79 37 9 24 142 23 151 -1z m299 -50 c-7 -2 -21 -2 -30
0 -10 3 -4 5 12 5 17 0 24 -2 18 -5z m-302 -19 c20 -24 -13 -44 -72 -44 -59 0
-79 7 -79 29 0 27 9 31 75 31 45 0 66 -4 76 -16z m197 -30 c-27 -46 -27 -157
0 -289 19 -90 19 -90 -2 -118 -23 -31 -62 -45 -79 -28 -9 9 -1 22 32 53 37 37
42 46 36 72 -37 176 -33 278 12 328 24 27 25 22 1 -18z m-464 -20 c16 -30 21
-58 21 -116 0 -55 4 -78 12 -78 7 0 20 -15 29 -32 9 -18 23 -41 31 -50 17 -20
11 -48 -11 -48 -8 0 -29 19 -46 43 -30 40 -32 46 -27 107 7 81 -7 156 -34 194
-12 16 -16 27 -8 24 7 -2 22 -22 33 -44z m731 -4 c10 -11 16 -20 13 -20 -3 0
-13 9 -23 20 -10 11 -16 20 -13 20 3 0 13 -9 23 -20z m-1042 -76 c-44 -44 -97
-106 -120 -139 -84 -125 -150 -282 -168 -400 -4 -32 -10 -44 -15 -35 -13 24 5
119 39 205 60 155 171 318 278 407 31 26 59 46 60 44 2 -2 -31 -39 -74 -82z
m579 58 c8 -8 8 -15 -2 -27 -10 -12 -29 -15 -79 -13 -59 3 -66 5 -69 25 -2 14
3 23 15 27 30 8 123 0 135 -12z m423 3 c79 -32 195 -167 278 -323 24 -45 47
-79 52 -75 4 5 5 2 1 -5 -4 -7 17 -80 48 -165 63 -174 69 -196 92 -332 20
-121 14 -196 -21 -265 -41 -81 -57 -83 -167 -17 -51 30 -127 69 -168 85 -100
40 -275 82 -339 82 -106 0 -147 48 -139 164 6 76 37 159 80 211 13 17 32 57
42 90 14 48 25 66 52 84 19 13 34 30 34 37 0 20 -8 18 -42 -11 -35 -29 -41
-30 -58 -10 -11 13 -9 19 10 32 13 9 32 25 42 35 10 10 24 16 29 12 7 -4 9 0
6 12 -14 47 -19 253 -7 288 24 75 97 104 175 71z m155 -92 c0 -8 -9 0 -50 45
l-45 47 48 -45 c26 -24 47 -45 47 -47z m872 53 c40 -17 84 -74 112 -145 15
-39 15 -43 1 -37 -9 3 -44 6 -78 6 -56 0 -63 2 -74 25 -13 30 -14 30 33 8 36
-17 36 -17 55 6 17 20 17 26 5 49 -14 27 -83 82 -118 95 -30 11 -20 0 25 -26
55 -33 94 -74 81 -87 -7 -7 -24 -3 -49 11 -22 12 -60 32 -84 45 -28 15 -61 24
-90 24 -25 0 -53 4 -61 10 -9 6 -17 5 -23 -3 -6 -8 -7 -8 -5 3 11 40 189 50
270 16z m-1448 -37 c30 -27 -107 -65 -140 -39 -21 18 -17 39 9 50 24 10 117 2
131 -11z m1165 8 c6 -8 36 -20 66 -27 30 -7 55 -16 55 -19 0 -3 -43 -5 -95 -3
-52 2 -102 -1 -110 -6 -10 -5 17 -7 70 -4 105 6 201 -13 232 -44 13 -13 20
-29 17 -37 -5 -13 -14 -13 -67 1 -86 23 -302 20 -319 -3 -5 -6 -8 -3 -8 6 0
22 57 92 99 124 40 29 45 30 60 12z m452 -122 c33 -58 34 -62 14 -62 -8 0 -12
3 -10 7 7 11 -31 83 -55 105 -12 11 -27 29 -32 40 -22 42 54 -41 83 -90z
m-2049 73 c-7 -7 -12 -32 -12 -57 0 -34 -3 -42 -10 -31 -20 31 -4 100 22 100
9 0 9 -3 0 -12z m1033 -8 c10 -11 16 -20 13 -20 -3 0 -13 9 -23 20 -10 11 -16
20 -13 20 3 0 13 -9 23 -20z m-731 -62 c31 -75 31 -78 8 -78 -24 0 -47 25 -67
74 -19 44 -14 66 13 66 14 0 26 -17 46 -62z m180 45 c4 -9 -5 -40 -19 -70 -21
-42 -31 -53 -51 -53 -31 0 -30 10 4 81 27 59 54 75 66 42z m-565 -127 c-5 -6
-9 3 -9 23 0 18 -4 40 -9 50 -6 10 -7 29 -4 42 5 19 10 9 19 -41 7 -39 8 -69
3 -74z m-58 107 c13 -16 12 -17 -3 -4 -10 7 -18 15 -18 17 0 8 8 3 21 -13z
m143 -72 c-36 -36 -69 -72 -74 -80 -5 -9 -12 -13 -16 -9 -4 4 23 38 60 74 44
45 63 70 55 75 -7 4 -1 6 14 6 24 -2 22 -6 -39 -66z m546 25 c0 -19 -58 -96
-73 -96 -35 1 -35 17 1 72 30 47 40 55 54 47 10 -5 18 -16 18 -23z m-663 -18
c-3 -8 -6 -5 -6 6 -1 11 2 17 5 13 3 -3 4 -12 1 -19z m69 -16 c-17 -16 -18
-16 -5 5 7 12 15 20 18 17 3 -2 -3 -12 -13 -22z m208 5 c-2 -7 9 -31 26 -52
34 -43 37 -53 13 -62 -11 -4 -28 7 -55 36 -43 45 -44 60 -7 78 30 16 29 16 23
0z m1289 1 c12 -6 54 -11 94 -10 39 1 74 -2 77 -6 10 -17 -30 -42 -113 -72
-102 -38 -111 -38 -111 -2 0 24 7 32 40 47 45 20 48 32 5 15 -33 -13 -39 -9
-30 19 7 24 9 25 38 9z m584 -22 c22 -23 25 -29 13 -37 -30 -18 -81 -10 -102
16 -11 14 -27 25 -36 24 -13 0 -11 -3 6 -11 54 -26 11 -44 -121 -50 -83 -3
-97 -2 -95 11 2 9 27 23 58 32 30 9 69 25 85 34 22 12 47 15 98 12 56 -4 71
-9 94 -31z m-1438 5 c14 -25 -39 -101 -69 -101 -36 0 -33 27 6 75 43 50 49 53
63 26z m521 -1 c6 -11 8 -20 6 -20 -3 0 -10 9 -16 20 -6 11 -8 20 -6 20 3 0
10 -9 16 -20z m594 11 c17 -7 17 -9 -8 -36 -18 -19 -24 -35 -20 -48 5 -16 3
-19 -11 -14 -9 4 -20 7 -25 7 -5 0 -6 16 -3 35 3 21 1 41 -7 50 -11 13 -8 15
21 14 19 0 42 -4 53 -8z m-1826 -18 c-10 -2 -26 -2 -35 0 -10 3 -2 5 17 5 19
0 27 -2 18 -5z m2211 -89 l1 -51 -54 8 c-30 4 -60 10 -67 15 -21 13 22 34 70
34 25 0 41 4 35 8 -7 4 -9 21 -6 42 4 29 6 32 13 15 4 -11 8 -43 8 -71z
m-1959 6 c32 -34 35 -42 22 -52 -12 -10 -13 -28 -9 -88 3 -42 11 -89 17 -105
6 -15 8 -30 5 -33 -9 -9 -33 62 -40 121 -5 40 -11 55 -18 48 -11 -11 -38 0
-70 28 -11 8 -26 16 -35 16 -19 0 -26 26 -18 61 4 15 14 24 26 24 23 0 26 -19
8 -39 -11 -11 -9 -12 7 -7 14 4 30 -4 54 -30 25 -25 37 -31 42 -22 6 9 -4 24
-26 45 -34 31 -43 52 -28 66 13 14 27 6 63 -33z m-160 21 c0 -4 -5 -22 -11
-40 -8 -22 -17 -31 -32 -30 -12 0 -16 3 -9 6 6 2 12 13 12 23 0 29 11 50 26
50 8 0 14 -4 14 -9z m1992 -27 c-12 -8 -22 -22 -22 -31 0 -10 -5 -13 -17 -8
-71 29 -76 29 -95 5 -10 -12 -18 -28 -18 -35 0 -15 44 -55 90 -82 17 -9 30
-20 30 -23 0 -3 -23 -15 -50 -27 -46 -20 -50 -20 -50 -4 0 29 -12 32 -32 6
-12 -15 -43 -32 -84 -44 -77 -23 -152 -70 -132 -82 7 -5 9 -9 4 -9 -11 0 -76
40 -76 47 0 3 6 3 14 0 8 -3 30 11 51 35 38 40 123 88 158 88 10 0 27 -4 37
-10 14 -7 24 -5 42 9 l23 19 -20 37 c-10 20 -39 51 -63 68 l-44 32 83 11 c46
6 109 12 139 12 52 2 53 1 32 -14z m-354 -59 c26 -14 65 -40 86 -59 l39 -33
-39 -13 c-21 -7 -55 -21 -75 -31 -36 -18 -37 -18 -54 1 -18 20 -17 20 18 20
29 0 67 20 67 35 0 17 -17 38 -42 51 -34 18 -177 36 -196 25 -8 -5 14 -9 49
-10 69 -2 136 -16 157 -34 25 -20 -11 -27 -107 -21 l-94 7 6 -23 c4 -16 3 -20
-5 -12 -13 13 -38 104 -31 115 2 4 16 7 31 8 15 0 52 8 82 18 53 16 55 16 58
-1 2 -10 24 -29 50 -43z m108 34 c40 -24 94 -85 94 -104 0 -27 -30 -16 -78 29
-26 24 -61 50 -78 59 -17 9 -37 23 -45 33 -13 16 -11 17 31 10 24 -4 59 -16
76 -27z m-1832 9 c-6 -9 -144 -7 -150 3 -3 5 31 8 74 7 44 -2 78 -6 76 -10z
m2054 -42 c51 -26 122 -87 122 -104 0 -16 -18 -24 -25 -12 -3 5 -16 10 -27 10
-12 0 -32 10 -44 21 -13 12 -44 35 -70 53 -26 17 -49 37 -52 44 -6 20 45 14
96 -12z m-1898 -56 c27 -22 32 -32 23 -40 -21 -23 -94 34 -77 61 8 14 16 11
54 -21z m2039 14 c2 -2 0 -13 -5 -24 -9 -20 -10 -20 -39 10 l-29 30 34 -6 c19
-4 37 -8 39 -10z m-2284 -14 c10 -11 16 -20 13 -20 -3 0 -13 9 -23 20 -10 11
-16 20 -13 20 3 0 13 -9 23 -20z m-72 3 c-7 -2 -19 -2 -25 0 -7 3 -2 5 12 5
14 0 19 -2 13 -5z m52 -23 c26 -28 15 -31 -12 -3 -12 13 -19 23 -14 23 4 0 16
-9 26 -20z m55 -30 c6 -11 8 -20 6 -20 -3 0 -10 9 -16 20 -6 11 -8 20 -6 20 3
0 10 -9 16 -20z m180 -10 c31 -26 33 -29 16 -36 -24 -9 -70 18 -74 45 -5 29
16 26 58 -9z m1430 -9 c0 -4 21 -6 48 -4 33 3 53 0 67 -11 17 -14 18 -17 5
-26 -8 -6 -28 -13 -43 -17 -20 -4 -26 -10 -22 -22 9 -24 -37 22 -58 58 -10 17
-13 31 -8 31 6 0 11 -4 11 -9z m584 3 c9 -3 16 -11 16 -16 0 -13 -48 -71 -69
-82 -12 -7 -11 -4 3 12 24 27 25 27 -70 -4 -115 -38 -144 -44 -144 -29 0 18
27 39 97 75 89 45 133 57 167 44z m-2221 -11 c-7 -2 -21 -2 -30 0 -10 3 -4 5
12 5 17 0 24 -2 18 -5z m62 -23 c10 -11 16 -20 13 -20 -3 0 -13 9 -23 20 -10
11 -16 20 -13 20 3 0 13 -9 23 -20z m102 -9 c18 -15 20 -23 13 -52 -6 -25 -8
-28 -9 -10 -1 13 -12 32 -26 43 -14 11 -25 24 -25 29 0 15 23 10 47 -10z
m-219 -42 c25 -2 25 -2 4 -6 -26 -5 -48 10 -63 41 -6 13 -2 11 11 -6 13 -17
32 -29 48 -29z m168 -10 c3 -6 1 -16 -5 -22 -9 -9 -11 -8 -6 6 8 20 -18 23
-62 6 -25 -10 -60 -16 -198 -33 l-40 -5 35 10 c19 6 64 14 100 19 36 4 76 12
90 18 33 14 77 15 86 1z m1835 -12 c-6 -8 -9 -22 -5 -31 5 -13 -1 -16 -28 -16
-18 0 -43 -7 -54 -14 -20 -14 -64 -12 -64 3 0 9 152 82 158 76 3 -3 0 -11 -7
-18z m-1826 -38 c-30 -30 -115 -83 -115 -71 0 4 20 18 45 31 26 13 55 37 67
53 11 16 23 27 26 23 3 -3 -8 -19 -23 -36z m2020 21 c-28 -45 -209 -85 -270
-61 -28 12 63 25 114 17 21 -3 41 -3 44 1 5 5 87 42 115 52 2 0 0 -4 -3 -9z
m-2070 -30 c-3 -5 -12 -10 -18 -10 -7 0 -6 4 3 10 19 12 23 12 15 0z m-147
-67 c-10 -2 -26 -2 -35 0 -10 3 -2 5 17 5 19 0 27 -2 18 -5z m62 2 c0 -2 -18
-14 -41 -25 -27 -14 -45 -33 -55 -56 -16 -38 -29 -46 -18 -11 8 29 32 55 69
78 30 19 45 23 45 14z m-283 -18 c-3 -8 8 -36 24 -63 16 -27 29 -55 29 -61 0
-29 -17 -9 -47 51 -23 47 -29 66 -20 75 15 15 20 14 14 -2z m103 -17 c-11 -38
-19 -50 -32 -50 -6 0 -4 8 5 18 10 10 17 25 17 34 0 13 8 28 16 28 1 0 -1 -13
-6 -30z m867 8 c-3 -8 -6 -5 -6 6 -1 11 2 17 5 13 3 -3 4 -12 1 -19z m-897 -7
c0 -5 -7 -12 -16 -15 -14 -5 -15 -4 -4 9 14 17 20 19 20 6z m225 -87 c-9 -14
-19 -23 -22 -20 -4 3 1 14 10 24 10 10 18 27 18 38 1 17 2 17 6 1 3 -10 -3
-29 -12 -43z m199 12 c-3 -15 -8 -25 -11 -23 -2 3 -1 17 3 31 3 15 8 25 11 23
2 -3 1 -17 -3 -31z m-354 10 c0 -2 -8 -10 -17 -17 -16 -13 -17 -12 -4 4 13 16
21 21 21 13z m219 -40 c-9 -8 -10 -7 -5 7 3 10 7 24 7 30 1 7 3 4 6 -7 3 -10
-1 -23 -8 -30z m-239 -30 l-32 -44 43 -82 c23 -45 55 -91 71 -103 36 -27 36
-42 -1 -23 -40 21 -74 65 -100 130 -26 63 -23 90 15 135 38 45 40 38 4 -13z
m57 22 c-3 -8 -6 -5 -6 6 -1 11 2 17 5 13 3 -3 4 -12 1 -19z m273 2 c-6 -11
-13 -20 -16 -20 -2 0 0 9 6 20 6 11 13 20 16 20 2 0 0 -9 -6 -20z m-360 -13
c-8 -7 -16 -19 -18 -27 -2 -8 -8 -19 -13 -25 -7 -7 -8 -4 -4 8 5 12 2 17 -11
17 -13 1 -8 7 16 20 40 22 52 25 30 7z m351 -53 c-17 -26 -33 -63 -37 -83 -9
-56 -15 -61 -9 -9 4 44 61 156 72 144 3 -3 -9 -26 -26 -52z m-496 -348 c6 -14
5 -18 -5 -14 -24 8 -32 59 -33 218 -1 228 17 227 24 0 3 -102 10 -193 14 -204z
m480 374 c-3 -5 -14 -10 -23 -9 -14 0 -13 2 3 9 27 11 27 11 20 0z m-44 -40
c-67 -16 -107 -40 -119 -73 -10 -25 -14 -29 -22 -17 -7 12 -12 11 -32 -5 -22
-19 -22 -18 1 8 18 19 27 24 32 15 5 -8 11 -3 18 15 12 32 79 67 126 66 l30
-1 -34 -8z m-151 -44 c0 -2 -8 -10 -17 -17 -16 -13 -17 -12 -4 4 13 16 21 21
21 13z m110 -60 c0 -3 -15 -14 -32 -26 l-33 -22 30 26 c31 27 35 29 35 22z m6
-32 c-22 -19 -48 -47 -58 -62 -10 -15 -18 -21 -18 -13 0 15 94 111 107 111 5
-1 -10 -17 -31 -36z m1319 -134 c10 -11 16 -20 13 -20 -3 0 -13 9 -23 20 -10
11 -16 20 -13 20 3 0 13 -9 23 -20z m-594 -90 c60 -43 253 -92 417 -106 51 -4
80 -10 74 -16 -12 -12 -184 6 -308 32 -95 20 -178 56 -210 91 -22 25 -9 24 27
-1z m-16 -60 l30 -35 -32 29 c-18 17 -33 34 -33 40 0 5 1 7 3 5 1 -2 16 -20
32 -39z m-437 -35 c-61 -34 -191 -56 -343 -60 l-150 -4 125 10 c135 9 265 31
326 53 51 19 76 19 42 1z m507 -43 c-5 -5 -63 26 -69 37 -4 5 12 0 33 -12 22
-12 38 -23 36 -25z m72 -18 c-3 -3 -12 -4 -19 -1 -8 3 -5 6 6 6 11 1 17 -2 13
-5z m396 -21 c-13 -2 -35 -2 -50 0 -16 2 -5 4 22 4 28 0 40 -2 28 -4z"/>
<path d="M2409 1365 c-11 -11 4 -65 18 -65 10 0 12 6 7 23 -9 32 -19 48 -25
42z"/>
<path d="M2460 1344 c0 -14 4 -23 10 -19 6 3 10 15 10 26 0 10 -4 19 -10 19
-5 0 -10 -12 -10 -26z"/>
<path d="M2377 1202 c-15 -9 -27 -22 -27 -29 0 -19 11 -16 44 10 35 28 22 42
-17 19z"/>
<path d="M2310 1154 c-23 -60 -23 -61 0 -27 12 18 20 40 18 49 -2 11 -9 2 -18
-22z"/>
<path d="M2411 1144 c-13 -14 -21 -27 -18 -31 8 -7 57 24 57 37 0 20 -17 17
-39 -6z"/>
<path d="M2664 1125 c5 -25 2 -42 -9 -57 -8 -13 -15 -32 -15 -45 0 -12 -5 -25
-10 -28 -12 -7 -4 -25 11 -25 6 0 8 4 4 9 -3 5 -1 12 4 16 6 3 8 -6 5 -21 -3
-18 -1 -25 8 -21 8 2 12 18 11 42 -2 29 2 42 19 53 17 13 19 17 7 26 -8 6 -14
17 -15 24 -1 6 -2 23 -2 37 -1 14 -7 25 -13 25 -7 0 -9 -12 -5 -35z"/>
<path d="M2754 1115 c-9 -20 -15 -37 -13 -38 17 -12 58 -24 63 -20 17 17 -3
93 -24 93 -5 0 -17 -16 -26 -35z"/>
<path d="M2577 1124 c-11 -12 -8 -59 5 -72 21 -21 26 -13 23 30 -3 41 -13 56
-28 42z"/>
<path d="M2441 1099 c-19 -16 -21 -20 -7 -25 22 -8 46 2 46 20 0 24 -13 26
-39 5z"/>
<path d="M2516 1023 c-3 -3 -6 -16 -6 -28 0 -11 -5 -26 -11 -32 -7 -7 -6 -12
6 -17 18 -7 30 15 22 44 -3 10 0 21 6 23 8 2 8 5 0 10 -5 4 -13 4 -17 0z"/>
<path d="M2750 1022 c0 -5 7 -9 15 -9 8 0 12 4 9 9 -3 4 -9 8 -15 8 -5 0 -9
-4 -9 -8z"/>
<path d="M2750 970 c0 -5 5 -10 10 -10 6 0 10 5 10 10 0 6 -4 10 -10 10 -5 0
-10 -4 -10 -10z"/>
<path d="M2810 955 c0 -8 2 -15 4 -15 2 0 6 7 10 15 3 8 1 15 -4 15 -6 0 -10
-7 -10 -15z"/>
<path d="M2720 905 c-15 -18 -6 -47 13 -39 8 3 17 -2 20 -10 4 -9 13 -16 22
-16 23 0 18 39 -7 61 -28 23 -32 23 -48 4z m50 -31 c0 -2 -8 0 -19 5 -10 6
-22 7 -26 3 -5 -4 -5 -1 -1 6 5 9 12 9 27 2 10 -6 19 -13 19 -16z"/>
<path d="M2535 860 c-10 -11 -13 -20 -8 -20 13 0 38 29 31 35 -3 3 -13 -4 -23
-15z"/>
<path d="M3548 1443 c7 -3 16 -2 19 1 4 3 -2 6 -13 5 -11 0 -14 -3 -6 -6z"/>
</g>
</svg>
