<?xml version="1.0" encoding="utf-8"?>
<!-- Svg Vector Icons : http://www.onlinewebfonts.com/icon -->
<!DOCTYPE svg PUBLIC "-//W3C//DTD SVG 1.1//EN" "http://www.w3.org/Graphics/SVG/1.1/DTD/svg11.dtd">
<svg version="1.1" xmlns="http://www.w3.org/2000/svg" xmlns:xlink="http://www.w3.org/1999/xlink" x="0px" y="0px" viewBox="0 0 1000 1000" enable-background="new 0 0 1000 1000" xml:space="preserve">
<metadata> Svg Vector Icons : http://www.onlinewebfonts.com/icon </metadata>
<g><g transform="translate(0.000000,511.000000) scale(0.100000,-0.100000)"><path d="M4567.4,3561l-52.5-50.4v-614.9c0-572.9-2.1-619-42-682c-48.3-79.7-174.2-167.9-264.4-186.8l-63-12.6l-56.7,224.5c-109.1,447-310.6,740.8-596,877.2c-132.2,60.9-159.5,67.2-352.5,67.2c-232.9,0-388.2-42-637.9-167.9C1470.1,2495,406.2,656.7,148.1-1055.7c-81.8-539.3-56.7-1215,56.7-1573.9c136.4-423.9,426-684.1,826.8-747c270.7-42,583.4,2.1,1068.1,146.9c1084.9,327.4,1689.3,747.1,1985.1,1376.6c182.6,386.1,207.8,612.8,188.9,1773.2c-6.3,467.9-16.8,912.8-23.1,988.4L4238,1047l102.8,16.8c149,21,402.9,125.9,537.2,218.2l115.4,81.8l109.1-73.4c144.8-96.5,312.7-170,493.1-214l146.9-37.8l-2.1-81.8c-37.8-2048.1-35.7-2201.3,54.6-2516.1c224.5-782.7,875.1-1303.1,2090.1-1666.2c669.4-201.4,1036.7-216.1,1385-56.6c256,117.5,463.8,415.5,551.9,789c224.5,950.6-44.1,2348.2-698.8,3622c-627.4,1223.4-1456.3,1999.8-2195,2058.6c-507.8,39.9-854.1-283.3-1024.1-952.7l-56.7-218.2l-62.9,12.6c-88.1,16.8-214.1,104.9-262.3,184.7c-39.9,63-42,109.1-42,682v614.9l-52.5,50.4c-62.9,63-134.3,67.2-207.7,8.4l-54.6-42v-642.1c0-415.5,8.4-669.4,23.1-719.8c56.6-186.8,272.8-381.9,501.5-449.1l94.4-29.4l-6.3-153.2c-2.1-83.9-8.4-157.4-12.6-161.6c-14.7-14.7-249.7,60.9-363.1,117.5c-60.9,29.4-159.5,94.4-218.2,144.8c-165.8,140.6-216.1,140.6-379.8-6.3c-44.1-37.8-134.3-98.6-201.4-132.2c-121.7-60.9-356.7-138.5-373.5-123.8c-4.2,4.2-10.5,77.6-12.6,161.6l-6.3,153.2l83.9,27.3c212,63,400.8,212,482.6,377.7c37.8,77.6,42,136.4,48.3,757.6l6.3,675.7l-56.7,44.1C4701.7,3628.1,4630.4,3626,4567.4,3561z M3383.9,2816c421.8-216.1,579.2-1131.1,560.3-3263.1c-10.5-986.3-10.5-986.3-167.9-1307.3c-193-394.5-635.8-740.8-1254.9-986.3c-239.2-94.4-682-235-881.4-279.1c-220.3-48.3-539.3-52.5-686.2-8.4C723-2959,551-2721.8,471.2-2356.7c-58.8,260.2-52.5,1003.1,10.5,1345.1c249.7,1364,984.2,2801.5,1779.5,3479.3C2670.4,2816,3113.2,2952.4,3383.9,2816z M7115,2822.3c956.9-264.4,2067-2039.7,2394.3-3825.5c63-333.6,79.7-938,35.7-1227.6c-50.4-321.1-123.8-499.4-266.5-644.2c-149-146.9-258.1-184.7-543.5-184.7c-241.3,0-449.1,44.1-862.5,178.4c-705.1,230.8-1091.2,444.9-1408.1,782.7c-111.2,117.5-184.7,220.3-245.5,342.1c-157.4,314.8-157.4,321.1-167.9,1298.9c-21,2329.3,153.2,3185.5,677.8,3317.7C6808.6,2879,6966,2864.3,7115,2822.3z"/></g></g>
</svg>